<svg xmlns="http://www.w3.org/2000/svg" viewBox="0 0 750 750" width="750" height="750" preserveAspectRatio="xMidYMid meet" style="width: 100%; height: 100%; transform: translate3d(0px, 0px, 0px);"><defs><clipPath id="__lottie_element_2"><rect width="750" height="750" x="0" y="0"></rect></clipPath></defs><g clip-path="url(#__lottie_element_2)"><g transform="matrix(0.9200000166893005,0,0,0.9200000166893005,375,383.1000061035156)" opacity="1" style="display: block;"><g opacity="1" transform="matrix(1,0,0,1,0,0)"><path fill="rgb(239,239,241)" fill-opacity="1" d=" M111.25,142 C84.37200164794922,124.25700378417969 27.250999450683594,176.7530059814453 31,188 C36.25,203.75 43.25,222.25 69.25,213.25 C95.25,204.25 134.802001953125,157.5469970703125 111.25,142z"></path></g><g opacity="1" transform="matrix(1,0,0,1,0,0)"><path fill="rgb(185,195,205)" fill-opacity="1" d=" M70.75,167 C70.75,167 71.75,193.25 70.375,208.375 C73.625,194.5 75.75,172.25 76,170 C76.25,167.75 70.75,167 70.75,167z"></path></g><g opacity="1" transform="matrix(1,0,0,1,0,0)"><path stroke-linecap="butt" stroke-linejoin="miter" fill-opacity="0" stroke-miterlimit="4" stroke="rgb(127,132,141)" stroke-opacity="1" stroke-width="4.5" d=" M111.25,142 C84.37200164794922,124.25700378417969 27.250999450683594,176.7530059814453 31,188 C36.25,203.75 43.25,222.25 69.25,213.25 C95.25,204.25 134.802001953125,157.5469970703125 111.25,142z"></path></g></g><g transform="matrix(0.9200000166893005,0,0,0.9200000166893005,357.1520080566406,376.2920227050781)" opacity="1" style="display: block;"><g opacity="1" transform="matrix(1,0,0,1,0,0)"><path fill="rgb(255,255,255)" fill-opacity="1" d=" M199.89599609375,48.01100158691406 C169,31.25 144.4040069580078,46.17900085449219 144.4040069580078,46.17900085449219 C144.4040069580078,46.17900085449219 171.5,42.25 198.40199279785156,66.73600006103516 C200.25,61.5 203.25,57 199.89599609375,48.01100158691406z"></path><path stroke-linecap="round" stroke-linejoin="round" fill-opacity="0" stroke="rgb(127,132,141)" stroke-opacity="1" stroke-width="4.5" d=" M199.89599609375,48.01100158691406 C169,31.25 144.4040069580078,46.17900085449219 144.4040069580078,46.17900085449219 C144.4040069580078,46.17900085449219 171.5,42.25 198.40199279785156,66.73600006103516 C200.25,61.5 203.25,57 199.89599609375,48.01100158691406z"></path></g><g opacity="1" transform="matrix(1,0,0,1,0,0)"><path fill="rgb(255,255,255)" fill-opacity="1" d=" M199.39599609375,18.76099967956543 C173.1739959716797,14.92199993133545 144.4040069580078,46.17900085449219 144.4040069580078,46.17900085449219 C144.4040069580078,46.17900085449219 185.5970001220703,33.15700149536133 212.40199279785156,41.736000061035156 C209.4770050048828,34.68600082397461 207.30799865722656,27.87299919128418 199.39599609375,18.76099967956543z"></path><path stroke-linecap="round" stroke-linejoin="round" fill-opacity="0" stroke="rgb(127,132,141)" stroke-opacity="1" stroke-width="4.5" d=" M199.39599609375,18.76099967956543 C173.1739959716797,14.92199993133545 144.4040069580078,46.17900085449219 144.4040069580078,46.17900085449219 C144.4040069580078,46.17900085449219 185.5970001220703,33.15700149536133 212.40199279785156,41.736000061035156 C209.4770050048828,34.68600082397461 207.30799865722656,27.87299919128418 199.39599609375,18.76099967956543z"></path></g><g opacity="1" transform="matrix(1,0,0,1,0,0)"><path fill="rgb(255,255,255)" fill-opacity="1" d=" M174.75,-1.25 C151.25,11 144.25,50 144.25,50 C144.25,50 172,18.5 198.75,9.75 C192.25,5.75 186.5,1.5 174.75,-1.25z"></path><path stroke-linecap="round" stroke-linejoin="round" fill-opacity="0" stroke="rgb(127,132,141)" stroke-opacity="1" stroke-width="4.5" d=" M174.75,-1.25 C151.25,11 144.25,50 144.25,50 C144.25,50 172,18.5 198.75,9.75 C192.25,5.75 186.5,1.5 174.75,-1.25z"></path></g></g><g transform="matrix(0.9200000166893005,0,0,0.9200000166893005,375,383.1000061035156)" opacity="1" style="display: block;"><g opacity="1" transform="matrix(1,0,0,1,0,0)"><path fill="rgb(255,255,255)" fill-opacity="1" d=" M87.25,7.25 C9.864999771118164,4.793000221252441 -60.95800018310547,48.5880012512207 -131.5,80.5 C-141.20399475097656,84.88999938964844 -144.27000427246094,99.99700164794922 -142.5,110.5 C-138.92799377441406,131.69200134277344 -113.5,156 -117,168 C-120.5,180 -121.625,182.75 -122.5,184.75 C-118.25,186.75 -112.5,190 -112.5,190 C-112.5,190 -104.68399810791016,219.42799377441406 -99.25,224.5 C-91.75,231.5 -71,241 -64.5,239.5 C-58,238 -39.5,220.75 -39.5,220.75 C-39.5,220.75 -38.5,237 -33,241.5 C-29.349000930786133,244.48699951171875 -9.699999809265137,254.49000549316406 8.75,247 C34,236.75 51.5,198.5 54,194 C56.5,189.5 88.5,183.5 92.5,183 C94.75,187 99.25,205.5 106.75,212.5 C113.4749984741211,218.77699279785156 135.37399291992188,223.53199768066406 142.75,218 C159.75,205.25 189.25,154.75 182.75,91.5 C178.41700744628906,49.340999603271484 129.61000061035156,8.595000267028809 87.25,7.25z"></path></g><g opacity="1" transform="matrix(1,0,0,1,0,0)"><path fill="rgb(239,239,241)" fill-opacity="1" d=" M40.5099983215332,11.055000305175781 C-19.111000061035156,22.22100067138672 -75.3949966430664,55.11899948120117 -131.5,80.5 C-141.20399475097656,84.88999938964844 -144.27000427246094,99.99700164794922 -142.5,110.5 C-141.36900329589844,117.21099853515625 -138.0449981689453,124.23600006103516 -134.14300537109375,131.08200073242188 C-74.5,183 34,107.5 40.5099983215332,11.055000305175781z"></path></g><g opacity="1" transform="matrix(1,0,0,1,0,0)"><path fill="rgb(239,239,241)" fill-opacity="1" d=" M-40.23400115966797,194.89500427246094 C-44.375,193.625 -65.19999694824219,188.10400390625 -64.83999633789062,195.4759979248047 C-64.375,205 -64.5,208 -64,216 C-62.941001892089844,232.9459991455078 -103,225.5 -110.82499694824219,195.94900512695312 C-108.2300033569336,204.82400512695312 -103.13200378417969,220.8769989013672 -99.25,224.5 C-91.75,231.5 -71,241 -64.5,239.5 C-58,238 -39.5,220.75 -39.5,220.75 C-39.5,220.75 -39.375,206.375 -40.23400115966797,194.89500427246094z"></path></g><g opacity="1" transform="matrix(1,0,0,1,0,0)"><path fill="rgb(239,239,241)" fill-opacity="1" d=" M44.75,172.75 C23,260.5 -39.5,220.75 -39.5,220.75 C-39.5,220.75 -38.5,237 -33,241.5 C-29.349000930786133,244.48699951171875 -9.699999809265137,254.49000549316406 8.75,247 C34,236.75 51.5,198.5 54,194 C56.5,189.5 88.5,183.5 92.5,183 C94.75,187 99.25,205.5 106.75,212.5 C113.4749984741211,218.77699279785156 135.37399291992188,223.53199768066406 142.75,218 C159.75,205.25 189.25,154.75 182.75,91.5 C182.30599975585938,87.18199920654297 181.39599609375,82.87999725341797 180.07400512695312,78.63300323486328 C166.5,132 82.77100372314453,173.95700073242188 44.75,172.75z"></path></g><g opacity="1" transform="matrix(1,0,0,1,0,0)"><path fill="rgb(185,195,205)" fill-opacity="1" d=" M-103.56199645996094,165.81199645996094 C-103.56199645996094,165.81199645996094 -109.18800354003906,186.81300354003906 -109.93800354003906,187.43800354003906 C-110.68800354003906,188.06300354003906 -115.625,186.25 -115.625,186.25 C-115.625,186.25 -116.06199645996094,189.375 -116.06199645996094,189.375 C-116.06199645996094,189.375 -110.31199645996094,192.43800354003906 -108,192.25 C-104.625,184.93800354003906 -103.56199645996094,165.81199645996094 -103.56199645996094,165.81199645996094z"></path></g><g opacity="1" transform="matrix(1,0,0,1,0,0)"><path fill="rgb(185,195,205)" fill-opacity="1" d=" M-89.68800354003906,171.43800354003906 C-89.68800354003906,171.43800354003906 -93.68800354003906,185.31300354003906 -94.43800354003906,185.93800354003906 C-95.18800354003906,186.56300354003906 -106.625,182.25 -106.625,182.25 C-106.625,182.25 -107.06199645996094,185.375 -107.06199645996094,185.375 C-107.06199645996094,185.375 -94.81199645996094,190.93800354003906 -92.5,190.75 C-89.125,183.43800354003906 -89.68800354003906,171.43800354003906 -89.68800354003906,171.43800354003906z"></path></g><g opacity="1" transform="matrix(1,0,0,1,0,0)"><path fill="rgb(185,195,205)" fill-opacity="1" d=" M-71.52999877929688,172.9149932861328 C-71.52999877929688,172.9149932861328 -72,184.25 -75.11499786376953,189.04600524902344 C-77.875,189.375 -81.28299713134766,188.47500610351562 -84.88200378417969,187.91900634765625 C-82.375,180 -83.4020004272461,171.44900512695312 -83.4020004272461,171.44900512695312 C-83.4020004272461,171.44900512695312 -85.75,184.875 -88.99800109863281,190.2259979248047 C-84.25,191.875 -75.17500305175781,193.2790069580078 -72.93800354003906,192.66299438476562 C-68.75,183.625 -71.52999877929688,172.9149932861328 -71.52999877929688,172.9149932861328z"></path></g><g opacity="1" transform="matrix(1,0,0,1,0,0)"><path fill="rgb(185,195,205)" fill-opacity="1" d=" M-28.280000686645508,138.4149932861328 C-28.280000686645508,138.4149932861328 -28.75,149.75 -31.864999771118164,154.54600524902344 C-34.625,154.875 -38.03300094604492,153.97500610351562 -41.63199996948242,153.41900634765625 C-39.125,145.5 -40.152000427246094,136.94900512695312 -40.152000427246094,136.94900512695312 C-40.152000427246094,136.94900512695312 -42.5,150.375 -45.74800109863281,155.7259979248047 C-41,157.375 -31.924999237060547,158.7790069580078 -29.687999725341797,158.16299438476562 C-25.5,149.125 -28.280000686645508,138.4149932861328 -28.280000686645508,138.4149932861328z"></path></g><g opacity="1" transform="matrix(1,0,0,1,0,0)"><path fill="rgb(185,195,205)" fill-opacity="1" d=" M-6.53000020980835,150.6649932861328 C-6.53000020980835,150.6649932861328 -7,162 -10.114999771118164,166.79600524902344 C-12.875,167.125 -13.657999992370605,166.35000610351562 -17.256999969482422,165.79400634765625 C-14.75,157.875 -15.777000427246094,149.32400512695312 -15.777000427246094,149.32400512695312 C-15.777000427246094,149.32400512695312 -18.125,162.75 -21.37299919128418,168.1009979248047 C-16.625,169.75 -10.175000190734863,171.0290069580078 -7.938000202178955,170.41299438476562 C-3.75,161.375 -6.53000020980835,150.6649932861328 -6.53000020980835,150.6649932861328z"></path></g><g opacity="1" transform="matrix(1,0,0,1,0,0)"><path fill="rgb(185,195,205)" fill-opacity="1" d=" M16.038999557495117,149.68699645996094 C16.038999557495117,149.68699645996094 14.371000289916992,160.90199279785156 12.230999946594238,166.20599365234375 C9.585000038146973,167.05599975585938 7.168000221252441,166.44500732421875 3.5290000438690186,166.58799743652344 C4.474999904632568,158.33599853515625 4.331999778747559,150.01400756835938 4.331999778747559,150.01400756835938 C4.331999778747559,150.01400756835938 1.5950000286102295,163.51699829101562 -0.5699999928474426,169.38999938964844 C4.406000137329102,170.1009979248047 12.980999946594238,170.37100219726562 15.059000015258789,169.33900451660156 C17.44099998474121,159.66700744628906 16.038999557495117,149.68699645996094 16.038999557495117,149.68699645996094z"></path></g><g opacity="1" transform="matrix(1,0,0,1,0,0)"><path fill="rgb(185,195,205)" fill-opacity="1" d=" M2.2309999465942383,160.95599365234375 C0.625,161 -1.9570000171661377,160.94500732421875 -5.5960001945495605,161.08799743652344 C-7.125,160.75 -9,163.5 -6.820000171661377,164.01499938964844 C-3.5,164.125 0,164 1.684000015258789,164.08900451660156 C3.125,163.875 3.25,160.5 2.2309999465942383,160.95599365234375z"></path></g><g opacity="1" transform="matrix(1,0,0,1,0,0)"><path fill="rgb(185,195,205)" fill-opacity="1" d=" M38.28900146484375,142.93699645996094 C38.28900146484375,142.93699645996094 36.62099838256836,154.15199279785156 34.48099899291992,159.45599365234375 C31.834999084472656,160.30599975585938 29.417999267578125,159.69500732421875 25.77899932861328,159.83799743652344 C26.725000381469727,151.58599853515625 26.582000732421875,143.26400756835938 26.582000732421875,143.26400756835938 C26.582000732421875,143.26400756835938 23.844999313354492,156.76699829101562 21.68000030517578,162.63999938964844 C26.6560001373291,163.3509979248047 35.23099899291992,163.62100219726562 37.308998107910156,162.58900451660156 C39.691001892089844,152.91700744628906 38.28900146484375,142.93699645996094 38.28900146484375,142.93699645996094z"></path></g><g opacity="1" transform="matrix(1,0,0,1,0,0)"><path fill="rgb(185,195,205)" fill-opacity="1" d=" M37.91400146484375,177.93699645996094 C37.91400146484375,177.93699645996094 36.24599838256836,189.15199279785156 34.10599899291992,194.45599365234375 C31.459999084472656,195.30599975585938 26.667999267578125,193.44500732421875 23.02899932861328,193.58799743652344 C23.975000381469727,185.33599853515625 23.832000732421875,177.01400756835938 23.832000732421875,177.01400756835938 C23.832000732421875,177.01400756835938 21.094999313354492,190.51699829101562 18.93000030517578,196.38999938964844 C23.9060001373291,197.1009979248047 34.85599899291992,198.62100219726562 36.933998107910156,197.58900451660156 C39.316001892089844,187.91700744628906 37.91400146484375,177.93699645996094 37.91400146484375,177.93699645996094z"></path></g><g opacity="1" transform="matrix(1,0,0,1,0,0)"><path fill="rgb(185,195,205)" fill-opacity="1" d=" M19.106000900268555,199.83099365234375 C16.459999084472656,200.68099975585938 11.668000221252441,198.82000732421875 8.029000282287598,198.96299743652344 C8.975000381469727,190.71099853515625 8.831999778747559,182.38900756835938 8.831999778747559,182.38900756835938 C8.831999778747559,182.38900756835938 6.09499979019165,195.89199829101562 3.930000066757202,201.76499938964844 C8.906000137329102,202.4759979248047 19.856000900268555,203.99600219726562 21.93400001525879,202.96400451660156 C22.975000381469727,198.73599243164062 22.937999725341797,196.5 23.458999633789062,195.58700561523438 C22.990999221801758,194.7830047607422 21.070999145507812,195.09800720214844 20.4689998626709,195.0189971923828 C20.07200050354004,195.66099548339844 19.481000900268555,198.9029998779297 19.106000900268555,199.83099365234375z"></path></g><g opacity="1" transform="matrix(1,0,0,1,0,0)"><path fill="rgb(185,195,205)" fill-opacity="1" d=" M-14.144000053405762,234.45599365234375 C-16.790000915527344,235.30599975585938 -20.582000732421875,234.19500732421875 -24.22100067138672,234.33799743652344 C-23.274999618530273,226.08599853515625 -25.417999267578125,218.76400756835938 -25.417999267578125,218.76400756835938 C-25.417999267578125,218.76400756835938 -25.125,233.375 -29.31999969482422,236.88999938964844 C-24.3439998626709,237.6009979248047 -14.394000053405762,238.49600219726562 -12.315999984741211,237.46400451660156 C-9.875,229.875 -10.5,224.375 -11.656000137329102,218.6439971923828 C-11.75,224.875 -10.875,228.5 -14.144000053405762,234.45599365234375z"></path></g><g opacity="1" transform="matrix(1,0,0,1,0,0)"><path fill="rgb(185,195,205)" fill-opacity="1" d=" M-1.7209999561309814,242.58799743652344 C-0.7749999761581421,234.33599853515625 -2.9179999828338623,227.01400756835938 -2.9179999828338623,227.01400756835938 C-2.9179999828338623,227.01400756835938 -2.625,241.625 -6.820000171661377,245.13999938964844 C-1.843999981880188,245.8509979248047 3.8559999465942383,245.37100219726562 5.934000015258789,244.33900451660156 C3,243.375 1.9179999828338623,242.44500732421875 -1.7209999561309814,242.58799743652344z"></path></g><g opacity="1" transform="matrix(1,0,0,1,0,0)"><path fill="rgb(185,195,205)" fill-opacity="1" d=" M77.48100280761719,154.58099365234375 C74.83499908447266,155.43099975585938 71.04299926757812,158.32000732421875 67.40399932861328,158.46299743652344 C66,150.375 65.45700073242188,140.51400756835938 65.45700073242188,140.51400756835938 C65.45700073242188,140.51400756835938 63,153.375 64.55500030517578,162.88999938964844 C69.53099822998047,163.6009979248047 79.35600280761719,158.37100219726562 81.43399810791016,157.33900451660156 C79.375,148.25 79.625,138.75 81.84400177001953,129.7689971923828 C79.375,132.375 76.625,142.25 77.48100280761719,154.58099365234375z"></path></g><g opacity="1" transform="matrix(1,0,0,1,0,0)"><path fill="rgb(185,195,205)" fill-opacity="1" d=" M90.48100280761719,147.08099365234375 C87.83499908447266,147.93099975585938 83.16799926757812,150.94500732421875 79.52899932861328,151.08799743652344 C77.875,151.625 78.75,155.5 79.68000030517578,155.51499938964844 C82.25,155.125 92.35600280761719,150.87100219726562 94.43399810791016,149.83900451660156 C92.375,140.75 92.625,131.25 94.84400177001953,122.26899719238281 C92.375,124.875 89.625,134.75 90.48100280761719,147.08099365234375z"></path></g><g opacity="1" transform="matrix(1,0,0,1,0,0)"><path fill="rgb(185,195,205)" fill-opacity="1" d=" M147.4810028076172,139.58099365234375 C144.8350067138672,140.43099975585938 141.04299926757812,143.32000732421875 137.4040069580078,143.46299743652344 C136,135.375 135.45700073242188,125.51399993896484 135.45700073242188,125.51399993896484 C135.45700073242188,125.51399993896484 133,138.375 134.55499267578125,147.88999938964844 C139.531005859375,148.6009979248047 149.3560028076172,143.37100219726562 151.4340057373047,142.33900451660156 C149.375,133.25 149.625,123.75 151.843994140625,114.76899719238281 C149.375,117.375 146.625,127.25 147.4810028076172,139.58099365234375z"></path></g><g opacity="1" transform="matrix(1,0,0,1,0,0)"><path fill="rgb(185,195,205)" fill-opacity="1" d=" M159.1060028076172,128.70599365234375 C156.4600067138672,129.55599975585938 153.1060028076172,132.38299560546875 149.4669952392578,132.5260009765625 C148.93800354003906,132.56300354003906 148.5,137.125 149.05499267578125,137.26499938964844 C152.375,137 160.9810028076172,132.49600219726562 163.0590057373047,131.46400451660156 C161,122.375 163.125,115.375 165.343994140625,106.39399719238281 C162.875,109 158.25,116.375 159.1060028076172,128.70599365234375z"></path></g><g opacity="1" transform="matrix(1,0,0,1,0,0)"><path fill="rgb(185,195,205)" fill-opacity="1" d=" M121.10600280761719,144.20599365234375 C125.18699645996094,143.43699645996094 130.3350067138672,142.57699584960938 135.0919952392578,141.33799743652344 C134.75,140.06199645996094 134.625,139 135.1179962158203,137.70199584960938 C134.125,137.93699645996094 121.48100280761719,140.99600219726562 123.55899810791016,139.96400451660156 C122.75,131.875 122.375,131.75 122.59400177001953,122.51899719238281 C121.75,125.68699645996094 120.875,135 121.10600280761719,144.20599365234375z"></path></g><g opacity="1" transform="matrix(1,0,0,1,0,0)"><path fill="rgb(185,195,205)" fill-opacity="1" d=" M144.6060028076172,199.58099365234375 C141.9600067138672,200.43099975585938 135.29299926757812,200.82000732421875 131.6540069580078,200.96299743652344 C130.25,192.875 129.70700073242188,183.01400756835938 129.70700073242188,183.01400756835938 C129.70700073242188,183.01400756835938 127.25,195.875 128.80499267578125,205.38999938964844 C133.781005859375,206.1009979248047 146.4810028076172,203.37100219726562 148.5590057373047,202.33900451660156 C147.26699829101562,196.63900756835938 148.125,188.06199645996094 148.86000061035156,184.4290008544922 C147.875,184.25 146.5,183.93800354003906 145.093994140625,184.33200073242188 C144.25,189.375 145,193.625 144.6060028076172,199.58099365234375z"></path></g><g opacity="1" transform="matrix(1,0,0,1,0,0)"><path fill="rgb(185,195,205)" fill-opacity="1" d=" M156.9810028076172,180.5189971923828 C154.3350067138672,181.36900329589844 148.79299926757812,181.69500732421875 145.1540069580078,181.83799743652344 C143.75,173.75 145.5189971923828,163.26400756835938 145.5189971923828,163.26400756835938 C145.5189971923828,163.26400756835938 140.75,176.75 142.30499267578125,186.26499938964844 C147.281005859375,186.9759979248047 155.54400634765625,185.1840057373047 157.6219940185547,184.15199279785156 C157.5,182.25 157,181.31300354003906 156.9810028076172,180.5189971923828z"></path></g><g opacity="1" transform="matrix(1,0,0,1,0,0)"><path fill="rgb(185,195,205)" fill-opacity="1" d=" M167.04400634765625,183.70599365234375 C164.3979949951172,184.55599975585938 163.41799926757812,183.94500732421875 159.7790069580078,184.08799743652344 C158.375,176 160.1439971923828,165.51400756835938 160.1439971923828,165.51400756835938 C160.1439971923828,165.51400756835938 155.375,179 156.92999267578125,188.51499938964844 C161.906005859375,189.2259979248047 162.9810028076172,189.12100219726562 165.0590057373047,188.08900451660156 C164.93699645996094,186.18699645996094 167.06300354003906,184.5 167.04400634765625,183.70599365234375z"></path></g><g opacity="1" transform="matrix(1,0,0,1,0,0)"><path fill="rgb(185,195,205)" fill-opacity="1" d=" M96.35399627685547,73.02799987792969 C98.93699645996094,77.875 100.75,80.81199645996094 102.25499725341797,83.9990005493164 C100.15699768066406,85.90899658203125 96.81999969482422,88.4000015258789 94.69200134277344,89.94599914550781 C89.02999877929688,84.00199890136719 84.55000305175781,79.80000305175781 84.55000305175781,79.80000305175781 C84.55000305175781,79.80000305175781 88.2020034790039,88.16200256347656 94.78199768066406,95.20899963378906 C99.31400299072266,93.03500366210938 105.18900299072266,86.95500183105469 106.34300231933594,84.94200134277344 C105.18499755859375,83.42900085449219 96.81099700927734,73.677001953125 96.35399627685547,73.02799987792969z"></path></g><g opacity="1" transform="matrix(1,0,0,1,0,0)"><path fill="rgb(185,195,205)" fill-opacity="1" d=" M105.71600341796875,63.9739990234375 C107.68099975585938,69.10299682617188 109.11799621582031,72.24299621582031 110.21800231933594,75.59100341796875 C107.9000015258789,77.22799682617188 104.27999877929688,79.28600311279297 101.97799682617188,80.55799865722656 C102.25,81.375 103,83.68699645996094 103.66899871826172,84.66699981689453 C106.375,83.43699645996094 112.76499938964844,78.88600158691406 114.15799713134766,77.03099822998047 C113.19599914550781,75.38600158691406 106.08899688720703,64.67500305175781 105.71600341796875,63.9739990234375z"></path></g><g opacity="1" transform="matrix(1,0,0,1,0,0)"><path fill="rgb(185,195,205)" fill-opacity="1" d=" M131.13400268554688,48.082000732421875 C135.375,53.375 143.07000732421875,64.23300170898438 143.8820037841797,67.66300201416016 C139.625,68.625 136.125,70.625 133.5,73.16300201416016 C129.19400024414062,66.17400360107422 118.18199920654297,54.6349983215332 118.18199920654297,54.6349983215332 C118.18199920654297,54.6349983215332 127.52200317382812,70.072998046875 132.4980010986328,78.33100128173828 C137.75,74.75 143.5,70.5 149.31100463867188,69.93299865722656 C148.49200439453125,68.21199798583984 138.375,52.25 131.13400268554688,48.082000732421875z"></path></g><g opacity="1" transform="matrix(1,0,0,1,0,0)"><path fill="rgb(185,195,205)" fill-opacity="1" d=" M144.13400268554688,39.832000732421875 C148.375,45.125 152.32000732421875,51.608001708984375 153.1320037841797,55.03799819946289 C148.875,56 145.375,58 142.75,60.53799819946289 C143.06199645996094,61.1879997253418 143.31300354003906,63.75 143.9980010986328,64.95600128173828 C149.25,61.375 152.75,57.875 158.56100463867188,57.30799865722656 C157.74200439453125,55.58700180053711 150.875,45.375 144.13400268554688,39.832000732421875z"></path></g><g opacity="1" transform="matrix(1,0,0,1,0,0)"><path fill="rgb(185,195,205)" fill-opacity="1" d=" M108.31999969482422,21.517000198364258 C113.30899810791016,26.113000869750977 116.30799865722656,30.242000579833984 117.6259994506836,33.51100158691406 C113.56199645996094,35.10100173950195 110.43699645996094,38.4370002746582 108.5009994506836,40.06999969482422 C105.81199645996094,35.4370002746582 103.06199645996094,34.125 95.60199737548828,26.80699920654297 C99.25,31.562000274658203 105.06199645996094,39.375 108.08599853515625,45.8129997253418 C112.74099731445312,41.48400115966797 117.67400360107422,36.37300109863281 123.33399963378906,34.93899917602539 C122.26599884033203,33.361000061035156 115.81800079345703,25.983999252319336 108.31999969482422,21.517000198364258z"></path></g><g opacity="1" transform="matrix(1,0,0,1,0,0)"><path fill="rgb(185,195,205)" fill-opacity="1" d=" M101.93900299072266,34.19900131225586 C98.84600067138672,35.58700180053711 96,39 94.06400299072266,40.632999420166016 C90.75,36.875 86.81199645996094,33.1870002746582 79.85199737548828,28.80699920654297 C83.375,32.875 90.875,39.875 94.39900207519531,44.6879997253418 C99.05400085449219,40.35900115966797 101.06300354003906,37.875 104.64700317382812,36.56399917602539 C103.5790023803711,34.986000061035156 102.88600158691406,33.77399826049805 101.93900299072266,34.19900131225586z"></path></g><g opacity="1" transform="matrix(1,0,0,1,0,0)"><path fill="rgb(185,195,205)" fill-opacity="1" d=" M73.19499969482422,43.516998291015625 C76.875,53 82,57.375 84.3759994506836,60.51100158691406 C81.875,63 78,65.625 75.0009994506836,65.94499969482422 C69.375,62 67.625,58.125 61.85200119018555,49.55699920654297 C65.5,54.3120002746582 65.375,61.625 74.33599853515625,70.31300354003906 C80.5,68.625 86.125,64.875 90.08399963378906,60.31399917602539 C89.01599884033203,58.736000061035156 78.75,50.5 73.19499969482422,43.516998291015625z"></path></g><g opacity="1" transform="matrix(1,0,0,1,0,0)"><path fill="rgb(185,195,205)" fill-opacity="1" d=" M70.3759994506836,63.26100158691406 C67.875,65.75 64.5,68 61.500999450683594,68.31999969482422 C55.875,64.375 54.125,60.5 48.35200119018555,51.93199920654297 C52,56.6870002746582 51.875,64 60.83599853515625,72.68800354003906 C67,71 68.875,70.75 72.83399963378906,66.18900299072266 C71.76599884033203,64.61100006103516 71.18699645996094,63.9370002746582 70.3759994506836,63.26100158691406z"></path></g><g opacity="1" transform="matrix(1,0,0,1,0,0)"><path fill="rgb(185,195,205)" fill-opacity="1" d=" M42.85200119018555,77.43199920654297 C50.20000076293945,91.77999877929688 53.35300064086914,106.89099884033203 53.61800003051758,121.99400329589844 C53.62799835205078,122.53800201416016 30.125,125.125 4.447000026702881,123.875 C35.375,127.75 53.63399887084961,124.95899963378906 53.625999450683594,125.625 C53.027000427246094,173.30999755859375 24.674999237060547,220.31500244140625 9.836000442504883,242.43800354003906 C44.733001708984375,202.16099548339844 57.01100158691406,158.81900024414062 56.52799987792969,125.30999755859375 C64.25,123.93699645996094 88.375,119.5 103.93399810791016,108.81400299072266 C84.375,117.625 59.875,121.56199645996094 56.45500183105469,121.62200164794922 C55.72600173950195,101.82599639892578 50.4739990234375,86.03900146484375 42.85200119018555,77.43199920654297z"></path></g><g opacity="1" transform="matrix(1,0,0,1,0,0)"><path fill="rgb(185,195,205)" fill-opacity="1" d=" M-64.64800262451172,197.6820068359375 C-64.75,212 -65.875,224 -63.63199996948242,238.74400329589844 C-63.54999923706055,239.28199768066406 -60.4010009765625,238.51400756835938 -60.66999816894531,237.2469940185547 C-62.5,228.625 -63.625,208.75 -64.64800262451172,197.6820068359375z"></path></g><g opacity="1" transform="matrix(1,0,0,1,0,0)"><path fill="rgb(127,132,141)" fill-opacity="1" d=" M88.97599792480469,181.7469940185547 C87.13400268554688,182.25900268554688 89.21199798583984,185.41400146484375 92.03600311279297,184.7570037841797 C105.5,181.625 120.56199645996094,171.5 125.5790023803711,166.71099853515625 C120.75,170.43699645996094 106.5,176.875 88.97599792480469,181.7469940185547z"></path></g><g opacity="1" transform="matrix(1,0,0,1,0,0)"><path fill="rgb(127,132,141)" fill-opacity="1" d=" M-55.25,191.25 C-55.25,191.25 -41.5,193.625 -41,196.125 C-39.5369987487793,203.44000244140625 -40.625,219.375 -41,221.25 C-41.375,223.125 -37.069000244140625,225.2689971923828 -37.25,222.375 C-37.5,218.375 -36.625,196.25 -38.125,194.375 C-39.625,192.5 -55.25,191.25 -55.25,191.25z"></path></g><g opacity="1" transform="matrix(1,0,0,1,0,0)"><path stroke-linecap="round" stroke-linejoin="round" fill-opacity="0" stroke="rgb(127,132,141)" stroke-opacity="1" stroke-width="4.5" d=" M87.25,7.25 C9.864999771118164,4.793000221252441 -60.95800018310547,48.5880012512207 -131.5,80.5 C-141.20399475097656,84.88999938964844 -144.27000427246094,99.99700164794922 -142.5,110.5 C-138.92799377441406,131.69200134277344 -113.5,156 -117,168 C-120.5,180 -121.625,182.75 -122.5,184.75 C-118.25,186.75 -112.5,190 -112.5,190 C-112.5,190 -104.68399810791016,219.42799377441406 -99.25,224.5 C-91.75,231.5 -71,241 -64.5,239.5 C-58,238 -39.5,220.75 -39.5,220.75 C-39.5,220.75 -38.5,237 -33,241.5 C-29.349000930786133,244.48699951171875 -9.699999809265137,254.49000549316406 8.75,247 C34,236.75 51.5,198.5 54,194 C56.5,189.5 88.5,183.5 92.5,183 C94.75,187 99.25,205.5 106.75,212.5 C113.4749984741211,218.77699279785156 135.37399291992188,223.53199768066406 142.75,218 C159.75,205.25 189.25,154.75 182.75,91.5 C178.41700744628906,49.340999603271484 129.61000061035156,8.595000267028809 87.25,7.25z"></path></g></g><g transform="matrix(0.9199999570846558,0,0,0.9199999570846558,375.0009460449219,383.10015869140625)" opacity="1" style="display: block;"><g opacity="1" transform="matrix(1,0,0,1,0,0)"><path fill="rgb(255,255,255)" fill-opacity="1" d=" M0,-119.5 C-24.25,-118 -17.5,-65.25 5.25,-33.75 C16.531999588012695,-18.128999710083008 38.75,3.75 48,13.5 C57.25,23.25 79,14.5 90.75,9 C97.45500183105469,5.861000061035156 116,-17.25 115.75,-45.5 C115.61699676513672,-60.518001556396484 88.25,-80.25 88.25,-80.25 C88.25,-80.25 94.25,-81.25 94.25,-81.25 C94.25,-81.25 91.5,-97.75 89.25,-96.75 C87,-95.75 81.5,-93.75 72.75,-94.75 C64,-95.75 61,-103.25 45.5,-112 C30,-120.75 24.25,-121 0,-119.5z"></path></g><g opacity="1" transform="matrix(1,0,0,1,0,0)"><path fill="rgb(239,239,241)" fill-opacity="1" d=" M0,-119.5 C-24.25,-118 -17.5,-65.25 5.25,-33.75 C16.531999588012695,-18.128999710083008 38.75,3.75 48,13.5 C57.25,23.25 79,14.5 90.75,9 C97.45500183105469,5.861000061035156 116,-17.25 115.75,-45.5 C109.99099731445312,-11.713000297546387 83.75,-10.5 70.48200225830078,-25.33099937438965 C58.76499938964844,-38.42900085449219 48.25,-49 36,-63.75 C21.867000579833984,-80.76799774169922 4.75,-107 0,-119.5z"></path></g><g opacity="1" transform="matrix(1,0,0,1,0,0)"><path fill="rgb(185,195,205)" fill-opacity="1" d=" M45.25,-53.5 C60.5,-34.25 75,-18 90.25,9.125 C92,8.375 92.375,8 93.5,6.5 C77.75,-19 58.5,-40 45.25,-53.5z"></path></g><g opacity="1" transform="matrix(1,0,0,1,0,0)"><path fill="rgb(185,195,205)" fill-opacity="1" d=" M72.5,-39 C72.5,-39 78.5,-33 83.5,-28.5 C80.25,-23.5 76.5,-17.25 76.5,-17.25 C76.5,-17.25 85.625,-24.25 87.75,-28.375 C82.875,-34 72.5,-39 72.5,-39z"></path></g><g opacity="1" transform="matrix(1,0,0,1,0,0)"><path fill="rgb(185,195,205)" fill-opacity="1" d=" M64.31199645996094,-24.5 C64.31199645996094,-24.5 66.5,-18.437999725341797 67.625,-14.187999725341797 C65.56300354003906,-12.62600040435791 60.625,-10.75 58.20800018310547,-9.706999778747559 C57.1870002746582,-11.812999725341797 55.6870002746582,-14.437000274658203 51.49800109863281,-24.011999130249023 C52.5620002746582,-16.937000274658203 56.5,-6.438000202178955 56.5,-6.438000202178955 C56.5,-6.438000202178955 67.31300354003906,-9.562999725341797 70.68800354003906,-12.875 C68.43800354003906,-18.375 64.31199645996094,-24.5 64.31199645996094,-24.5z"></path></g><g opacity="1" transform="matrix(1,0,0,1,0,0)"><path fill="rgb(185,195,205)" fill-opacity="1" d=" M60.30799865722656,-9.920999526977539 C60.30799865722656,-9.920999526977539 61.23500061035156,-3.5420000553131104 61.48500061035156,0.847000002861023 C59.1510009765625,1.9639999866485596 53.9379997253418,2.809999942779541 51.361000061035156,3.3469998836517334 C50.78300094604492,1.0800000429153442 49.840999603271484,-1.7929999828338623 47.65700149536133,-12.012999534606934 C47.28099822998047,-4.868000030517578 49.03200149536133,6.208000183105469 49.03200149536133,6.208000183105469 C49.03200149536133,6.208000183105469 60.250999450683594,5.315000057220459 64.22200012207031,2.746999979019165 C63.12099838256836,-3.0929999351501465 60.30799865722656,-9.920999526977539 60.30799865722656,-9.920999526977539z"></path></g><g opacity="1" transform="matrix(1,0,0,1,0,0)"><path stroke-linecap="butt" stroke-linejoin="miter" fill-opacity="0" stroke-miterlimit="4" stroke="rgb(127,132,141)" stroke-opacity="1" stroke-width="4" d=" M0,-119.5 C-24.25,-118 -17.5,-65.25 5.25,-33.75 C16.531999588012695,-18.128999710083008 38.75,3.75 48,13.5 C57.25,23.25 79,14.5 90.75,9 C97.45500183105469,5.861000061035156 116,-17.25 115.75,-45.5 C115.61699676513672,-60.518001556396484 88.25,-80.25 88.25,-80.25 C88.25,-80.25 94.25,-81.25 94.25,-81.25 C94.25,-81.25 91.5,-97.75 89.25,-96.75 C87,-95.75 81.5,-93.75 72.75,-94.75 C64,-95.75 61,-103.25 45.5,-112 C30,-120.75 24.25,-121 0,-119.5z"></path></g><g opacity="1" transform="matrix(1,0,0,1,0,0)"><path fill="rgb(49,43,43)" fill-opacity="1" d=" M53.797000885009766,-84.21499633789062 C50.85900115966797,-87.23999786376953 48.5,-82.75 53.21799850463867,-75.65799713134766 C54.55099868774414,-73.65399932861328 58.87099838256836,-69.38099670410156 58.87099838256836,-69.38099670410156 C58.87099838256836,-69.38099670410156 55.90599822998047,-68.01799774169922 53.80099868774414,-65.79399871826172 C52.196998596191406,-64.0989990234375 55.61000061035156,-60.24399948120117 57.57500076293945,-61.50199890136719 C59.74100112915039,-62.888999938964844 62.194000244140625,-65.23500061035156 62.194000244140625,-65.23500061035156 C62.194000244140625,-65.23500061035156 67.4800033569336,-61.08399963378906 67.4800033569336,-61.08399963378906 C67.4800033569336,-61.08399963378906 64.625,-58.25 60.23699951171875,-56.14099884033203 C57.35599899291992,-54.75600051879883 61.321998596191406,-50.69300079345703 63.220001220703125,-51.37699890136719 C67.375,-52.875 72.29199981689453,-56.14699935913086 72.29199981689453,-56.14699935913086 C72.29199981689453,-56.14699935913086 76.51000213623047,-51.28300094604492 78.94599914550781,-49.35200119018555 C83.92500305175781,-45.40599822998047 84.97200012207031,-52.400001525878906 82.56700134277344,-55.70000076293945 C80.3030014038086,-58.805999755859375 77.18099975585938,-61.6879997253418 77.18099975585938,-61.6879997253418 C77.18099975585938,-61.6879997253418 81.625,-66.125 83.13099670410156,-69.41000366210938 C84.44200134277344,-72.26899719238281 80.81300354003906,-77.48500061035156 78.21600341796875,-72.65599822998047 C76.25,-69 73.12100219726562,-66.3479995727539 73.12100219726562,-66.3479995727539 C73.12100219726562,-66.3479995727539 69.7959976196289,-70.25199890136719 69.7959976196289,-70.25199890136719 C69.7959976196289,-70.25199890136719 72.77200317382812,-71.50700378417969 73.96499633789062,-74.37300109863281 C74.5979995727539,-75.89299774169922 71.92400360107422,-77.50900268554688 70.29000091552734,-77.30699920654297 C66.85800170898438,-76.88300323486328 65.44000244140625,-74.1780014038086 65.44000244140625,-74.1780014038086 C65.44000244140625,-74.1780014038086 56.617000579833984,-81.31099700927734 53.797000885009766,-84.21499633789062z"></path></g></g><g transform="matrix(0.9199999570846558,0,0,0.9199999570846558,375.0000305175781,383.0999755859375)" opacity="1" style="display: block;"><g opacity="1" transform="matrix(1,0,0,1,0,0)"><path fill="rgb(255,255,255)" fill-opacity="1" d=" M-95.25,-135.5 C-117.25,-136 -150.5,-128.25 -155.25,-127 C-160,-125.75 -193.35000610351562,-106.8030014038086 -190.25,-82 C-187.25,-58 -174.75,-54.75 -162.25,-52.25 C-149.75,-49.75 -108.53700256347656,-66.26300048828125 -92.25,-86.5 C-81.98999786376953,-99.24800109863281 -78.88999938964844,-135.1280059814453 -95.25,-135.5z"></path></g><g opacity="1" transform="matrix(1,0,0,1,0,0)"><path fill="rgb(239,239,241)" fill-opacity="1" d=" M-95.25,-135.5 C-107.625,-127.5 -142.8179931640625,-105.11699676513672 -147.25,-103 C-155.625,-99 -179.25,-88.75 -190.25,-82 C-187.25,-58 -174.75,-54.75 -162.25,-52.25 C-149.75,-49.75 -108.53700256347656,-66.26300048828125 -92.25,-86.5 C-81.98999786376953,-99.24800109863281 -78.88999938964844,-135.1280059814453 -95.25,-135.5z"></path></g><g opacity="1" transform="matrix(1,0,0,1,0,0)"><path fill="rgb(185,195,205)" fill-opacity="1" d=" M-140.375,-107.875 C-140.375,-107.875 -189.625,-84.75 -189.625,-84.75 C-189.625,-84.75 -188.75,-81 -188.75,-81 C-188.75,-81 -140.375,-107.875 -140.375,-107.875z"></path></g><g opacity="1" transform="matrix(1,0,0,1,0,0)"><path fill="rgb(185,195,205)" fill-opacity="1" d=" M-139.25,-128.5 C-139.25,-128.5 -147,-125.875 -151.31199645996094,-125.875 C-152.87399291992188,-123.68699645996094 -152.5,-118.18699645996094 -151.25,-116.875 C-146.36399841308594,-114.90499877929688 -136.375,-119 -136.375,-119 C-136.375,-119 -145.62100219726562,-117.19300079345703 -149.75,-118.875 C-150.18800354003906,-120.25 -150.25,-123.125 -149.875,-124.5 C-146.375,-124.68800354003906 -139.25,-128.5 -139.25,-128.5z"></path></g><g opacity="1" transform="matrix(1,0,0,1,0,0)"><path fill="rgb(185,195,205)" fill-opacity="1" d=" M-151.125,-121.875 C-151.125,-121.875 -161.87600708007812,-116.06199645996094 -166.18800354003906,-116.06199645996094 C-167.75,-113.8740005493164 -168.06199645996094,-107.5 -166.81199645996094,-106.18800354003906 C-161.92599487304688,-104.21800231933594 -151.875,-110.18800354003906 -151.875,-110.18800354003906 C-151.875,-110.18800354003906 -161.18299865722656,-106.50599670410156 -165.31199645996094,-108.18800354003906 C-165.75,-109.56300354003906 -165.125,-113.18699645996094 -164.75,-114.56199645996094 C-161.25,-114.75 -151.125,-121.875 -151.125,-121.875z"></path></g><g opacity="1" transform="matrix(1,0,0,1,0,0)"><path stroke-linecap="butt" stroke-linejoin="miter" fill-opacity="0" stroke-miterlimit="4" stroke="rgb(127,132,141)" stroke-opacity="1" stroke-width="4" d=" M-95.25,-135.5 C-117.25,-136 -150.5,-128.25 -155.25,-127 C-160,-125.75 -193.35000610351562,-106.8030014038086 -190.25,-82 C-187.25,-58 -174.75,-54.75 -162.25,-52.25 C-149.75,-49.75 -108.53700256347656,-66.26300048828125 -92.25,-86.5 C-81.98999786376953,-99.24800109863281 -78.88999938964844,-135.1280059814453 -95.25,-135.5z"></path></g></g><g transform="matrix(0.9199999570846558,0,0,0.9199999570846558,374.9998779296875,383.10089111328125)" opacity="1" style="display: block;"><g opacity="1" transform="matrix(1,0,0,1,0,0)"><path fill="rgb(232,109,69)" fill-opacity="1" d=" M-156,109.25 C-156,109.25 -163.69400024414062,126.66400146484375 -161.5,142.75 C-160,153.75 -153.97799682617188,160.77000427246094 -146,161 C-137.38800048828125,161.2480010986328 -129.25,156 -126.75,143.75 C-124.80599975585938,134.2220001220703 -120.5,117.5 -119.25,114.75 C-118,112 -156,109.25 -156,109.25z"></path><path stroke-linecap="butt" stroke-linejoin="miter" fill-opacity="0" stroke-miterlimit="4" stroke="rgb(165,44,13)" stroke-opacity="1" stroke-width="4" d=" M-156,109.25 C-156,109.25 -163.69400024414062,126.66400146484375 -161.5,142.75 C-160,153.75 -153.97799682617188,160.77000427246094 -146,161 C-137.38800048828125,161.2480010986328 -129.25,156 -126.75,143.75 C-124.80599975585938,134.2220001220703 -120.5,117.5 -119.25,114.75 C-118,112 -156,109.25 -156,109.25z"></path></g><g opacity="1" transform="matrix(1,0,0,1,0,0)"><path fill="rgb(165,44,13)" fill-opacity="1" d=" M-144.625,114.875 C-144.625,114.875 -147,134.5 -145.25,144.5 C-143.875,124.5 -140,115.25 -140,115.25 C-140,115.25 -144.625,114.875 -144.625,114.875z"></path></g></g><g transform="matrix(0.9199999570846558,0,0,0.9199999570846558,375.0000305175781,383.1000061035156)" opacity="1" style="display: block;"><g opacity="1" transform="matrix(1,0,0,1,0,0)"><path fill="rgb(255,255,255)" fill-opacity="1" d=" M-94.5,-135.5 C-102.75,-132.75 -146.5,-106 -150,-103.5 C-153.5,-101 -196,-19 -197,-16.5 C-198,-14 -204.875,-5.25 -217.875,-3.75 C-219.375,1.625 -219.375,10.625 -218,14.5 C-212.875,15.875 -206.5,13.5 -206.5,13.5 C-206.5,13.5 -214.5,30.5 -215,34.5 C-214.75,53.25 -191,101.25 -176.5,110.75 C-152,125.75 -113,129.25 -75.5,127.25 C-41,117 2.5,85 9.75,74.75 C31.25,53 39,27.5 41,10.5 C49,-26.5 36.5,-69 34.5,-75.5 C29.25,-96.25 8,-117 3,-119.5 C-18.75,-132.25 -91.5,-136.5 -94.5,-135.5z"></path></g><g opacity="1" transform="matrix(1,0,0,1,0,0)"><path fill="rgb(239,239,241)" fill-opacity="1" d=" M-211.4250030517578,51.474998474121094 C-204.20399475097656,73.49299621582031 -187.6280059814453,103.45899963378906 -176.5,110.75 C-152,125.75 -113,129.25 -75.5,127.25 C-41,117 2.5,85 9.75,74.75 C31.25,53 39,27.5 41,10.5 C49,-26.5 36.5,-69 34.5,-75.5 C29.25,-96.25 8,-117 3,-119.5 C10,-106 20,-72 19.44099998474121,-61.797000885009766 C14.25,-46.625 3.875,-8.25 -12.541000366210938,29.979999542236328 C-26.952999114990234,63.542999267578125 -49.57699966430664,89.91100311279297 -70.61100006103516,97.28099822998047 C-90.64900207519531,104.302001953125 -110.27100372314453,107.86399841308594 -130.6199951171875,104.16200256347656 C-112,95.5 -89,75.5 -85.62000274658203,67.822998046875 C-105,67 -187.468994140625,60.766998291015625 -190.86099243164062,59.775001525878906 C-189.25,66.5 -179.75,79 -164.77999877929688,93.55899810791016 C-184.9499969482422,83.43599700927734 -201.89100646972656,68.35299682617188 -211.4250030517578,51.474998474121094z"></path></g><g opacity="1" transform="matrix(1,0,0,1,0,0)"><path fill="rgb(139,167,171)" fill-opacity="1" d=" M-29.5,-60.75 C-69.25,-74 -90.3479995727539,-39.137001037597656 -96.75,-12.25 C-100.5,3.5 -92.75700378417969,16.326000213623047 -85,19.5 C-74,24 -67.54900360107422,22.115999221801758 -58.75,25.75 C-47.25,30.5 -45.70000076293945,36.81399917602539 -36,39.5 C-19.75,44 -11.494000434875488,20.038000106811523 -8.5,13.75 C-3.5,3.25 4.25,-49.5 -29.5,-60.75z"></path></g><g opacity="1" transform="matrix(1,0,0,1,0,0)"><path fill="rgb(49,43,43)" fill-opacity="1" d=" M-67.25,-26.25 C-60.5,-34.75 -68.34100341796875,-32.20399856567383 -70.86900329589844,-30.548999786376953 C-88.75,-17.75 -77.5,-12 -68,-12.5 C-48.46900177001953,-13.527999877929688 -34,-8.5 -26.75,2.5 C-22.992000579833984,8.201000213623047 -15.628000259399414,7.323999881744385 -19.44300079345703,-1.347000002861023 C-26,-16.25 -43.356998443603516,-29.35300064086914 -67.25,-26.25z"></path></g><g opacity="1" transform="matrix(1,0,0,1,0,0)"><path fill="rgb(49,43,43)" fill-opacity="1" d=" M-137.93800354003906,-33.935001373291016 C-138.531005859375,-44.21699905395508 -133.6840057373047,-39.04999923706055 -132.67300415039062,-36.507999420166016 C-127.375,-22.625 -136.36599731445312,-20.46500015258789 -143.23199462890625,-24.951000213623047 C-152.875,-31.25 -163.625,-31 -175.04299926757812,-25.82900047302246 C-181.01600646972656,-23.124000549316406 -185.125,-26.5 -179.0749969482422,-31.374000549316406 C-168.27000427246094,-40.07699966430664 -153.5,-42.75 -137.93800354003906,-33.935001373291016z"></path></g><g opacity="1" transform="matrix(1,0,0,1,0,0)"><path fill="rgb(49,43,43)" fill-opacity="1" d=" M-108.06300354003906,-86.80999755859375 C-104.85399627685547,-83.64700317382812 -108.06999969482422,-76.63800048828125 -115.23200225830078,-81.20099639892578 C-121,-84.875 -132.625,-86.625 -144.41799926757812,-84.8290023803711 C-147.6199951171875,-84.34100341796875 -148.875,-85.25 -147.6999969482422,-86.3740005493164 C-140.37600708007812,-93.3759994506836 -116.625,-95.25 -108.06300354003906,-86.80999755859375z"></path></g><g opacity="1" transform="matrix(1,0,0,1,0,0)"><path fill="rgb(49,43,43)" fill-opacity="1" d=" M-59.04800033569336,-77.08000183105469 C-63.20600128173828,-75.5270004272461 -63.33700180053711,-67.8550033569336 -55.11199951171875,-69.05699920654297 C-48.48899841308594,-70.0250015258789 -35.40299987792969,-68.2239990234375 -25.79199981689453,-61.76499938964844 C-23.183000564575195,-60.01100158691406 -21.69499969482422,-60.321998596191406 -22.253999710083008,-61.821998596191406 C-25.738000869750977,-71.16899871826172 -47.95500183105469,-81.2229995727539 -59.04800033569336,-77.08000183105469z"></path></g><g opacity="1" transform="matrix(1,0,0,1,0,0)"><path fill="rgb(185,195,205)" fill-opacity="1" d=" M-148.125,-104.56199645996094 C-148.125,-104.56199645996094 -150.75,-103.43800354003906 -150.81199645996094,-102.68800354003906 C-130.45599365234375,-98.17900085449219 -88.5,-91.375 -88.5,-91.375 C-88.5,-91.375 -148.125,-104.56199645996094 -148.125,-104.56199645996094z"></path></g><g opacity="1" transform="matrix(1,0,0,1,0,0)"><path fill="rgb(185,195,205)" fill-opacity="1" d=" M17.301000595092773,-62.1870002746582 C17.301000595092773,-62.1870002746582 9,-31.25 -4.563000202178955,10.692999839782715 C-1.7960000038146973,9.062000274658203 9.84000015258789,-33.56100082397461 19.743000030517578,-58.779998779296875 C23,-52.625 34.5,-28 40.03200149536133,13.78499984741211 C40.5,14.5 41.09199905395508,10.510000228881836 41.14899826049805,10.017000198364258 C35.875,-33 21.25200080871582,-61.18299865722656 21.56599998474121,-61.91899871826172 C29.75,-67.25 33.630001068115234,-73.64299774169922 34.10599899291992,-74.53299713134766 C30.375,-70.5 25.464000701904297,-67.85600280761719 20.382999420166016,-65.95999908447266 C19.60099983215332,-66.2020034790039 15.375,-99.5 2.494999885559082,-119.61199951171875 C1.6360000371932983,-120.9530029296875 -0.4950000047683716,-121.1510009765625 -0.6690000295639038,-121.19300079345703 C13,-98 17.349000930786133,-65.3270034790039 16.43400001525879,-65.59500122070312 C-4.690999984741211,-71.77300262451172 -43.91699981689453,-81.84600067138672 -43.91699981689453,-81.84600067138672 C-43.91699981689453,-81.84600067138672 17.301000595092773,-62.1870002746582 17.301000595092773,-62.1870002746582z"></path></g><g opacity="1" transform="matrix(1,0,0,1,0,0)"><path fill="rgb(185,195,205)" fill-opacity="1" d=" M-75.90899658203125,127.42500305175781 C-75.90899658203125,127.42500305175781 -74.25,126.93800354003906 -72.15799713134766,126.26899719238281 C-46.875,103.75 -38.6150016784668,87.05500030517578 -27.218000411987305,69.48799896240234 C-25.527000427246094,70.00399780273438 -5.936999797821045,74.125 8.371999740600586,75.97799682617188 C9.187999725341797,75.375 10.817000389099121,73.64199829101562 11.050000190734863,73.18800354003906 C-4.25,71.93800354003906 -24.79599952697754,67.40599822998047 -26.062000274658203,67.00399780273438 C-19.06100082397461,53.73500061035156 -12.380999565124512,29.50200080871582 -12.380999565124512,29.50200080871582 C-12.380999565124512,29.50200080871582 -21.649999618530273,53.0890007019043 -29.27199935913086,66.29199981689453 C-30.288999557495117,65.99400329589844 -35.25,65.56300354003906 -51.37200164794922,61.000999450683594 C-41.9370002746582,65.43800354003906 -32.513999938964844,67.8280029296875 -30.215999603271484,68.50700378417969 C-50.375,105.56199645996094 -72.80799865722656,122.3759994506836 -72.80799865722656,122.3759994506836 C-72.80799865722656,122.3759994506836 -75.5,97.75 -83.88099670410156,81.94999694824219 C-74.75,106.375 -75.90899658203125,127.42500305175781 -75.90899658203125,127.42500305175781z"></path></g><g opacity="1" transform="matrix(1,0,0,1,0,0)"><path fill="rgb(185,195,205)" fill-opacity="1" d=" M-215,32.1879997253418 C-215,32.1879997253418 -214.87600708007812,35 -215.68800354003906,35.3120002746582 C-209.62600708007812,37.25 -198.375,40.625 -198.375,40.625 C-198.375,40.625 -215,32.1879997253418 -215,32.1879997253418z"></path></g><g opacity="1" transform="matrix(1,0,0,1,0,0)"><path fill="rgb(185,195,205)" fill-opacity="1" d=" M-150.0760040283203,121.48699951171875 C-150.0760040283203,121.48699951171875 -148,121.85199737548828 -147.41400146484375,122.49600219726562 C-147.6219940185547,119.12000274658203 -148.625,106.5 -146.1280059814453,93.52100372314453 C-146.22300720214844,92.34300231933594 -149.64999389648438,91.7030029296875 -149.86000061035156,93.18499755859375 C-151.875,107.375 -150.0760040283203,121.48699951171875 -150.0760040283203,121.48699951171875z"></path></g><g opacity="1" transform="matrix(1,0,0,1,0,0)"><path fill="rgb(185,195,205)" fill-opacity="1" d=" M-63.375,58.75 C-63.375,58.75 -68.125,75.125 -70.75,77.5 C-68.5,80.375 -59.875,83.875 -56,83.75 C-52.5,80.875 -51,68.125 -51,68.125 C-51,68.125 -53.375,77.75 -56.125,80.125 C-57.875,79.875 -63.875,78.5 -66.375,75.75 C-64.5,67.125 -63.375,58.75 -63.375,58.75z"></path></g><g opacity="1" transform="matrix(1,0,0,1,0,0)"><path fill="rgb(185,195,205)" fill-opacity="1" d=" M-61.625,79.875 C-61.625,79.875 -65.25,91.5 -67.875,93.875 C-65.625,96.75 -58.625,98.25 -54.75,98.125 C-51.25,95.25 -49.75,82.5 -49.75,82.5 C-49.75,82.5 -52.125,92.125 -54.875,94.5 C-56.625,94.25 -61,94.875 -63.5,92.125 C-61.625,83.5 -61.625,79.875 -61.625,79.875z"></path></g><g opacity="1" transform="matrix(1,0,0,1,0,0)"><path fill="rgb(185,195,205)" fill-opacity="1" d=" M-9.326000213623047,39.47100067138672 C-9.326000213623047,39.47100067138672 -10.75,45.75 -6.945000171661377,52.62099838256836 C-3.2990000247955322,52.426998138427734 5.945000171661377,42.93000030517578 8.065999984741211,39.683998107910156 C1.25,29.375 0.26100000739097595,16.375 0.26100000739097595,16.375 C0.26100000739097595,16.375 -1.375,25.625 4.150000095367432,39.207000732421875 C2.940999984741211,40.49700164794922 -2.875,46.125 -5.868000030517578,47.534000396728516 C-8.625,43.25 -9.326000213623047,39.47100067138672 -9.326000213623047,39.47100067138672z"></path></g><g opacity="1" transform="matrix(1,0,0,1,0,0)"><path fill="rgb(185,195,205)" fill-opacity="1" d=" M3.555000066757202,34.12099838256836 C7.201000213623047,33.926998138427734 15.194999694824219,25.18000030517578 17.31599998474121,21.93400001525879 C10.5,11.625 9.26099967956543,-4.75 9.26099967956543,-4.75 C9.26099967956543,-4.75 7.875,7.875 13.399999618530273,21.457000732421875 C12.190999984741211,22.746999740600586 5.375,28.687000274658203 2.381999969482422,30.09600067138672 C2.562999963760376,31.562000274658203 3,32.75 3.555000066757202,34.12099838256836z"></path></g><g opacity="1" transform="matrix(1,0,0,1,0,0)"><path fill="rgb(185,195,205)" fill-opacity="1" d=" M11.805000305175781,12.621000289916992 C14.5,11 18.94499969482422,5.304999828338623 21.06599998474121,2.059000015258789 C15.625,-7.625 15.324000358581543,-19.437999725341797 15.324000358581543,-19.437999725341797 C15.324000358581543,-19.437999725341797 13.625,-9 17.149999618530273,1.5820000171661377 C15.940999984741211,2.871999979019165 13.75,7.186999797821045 10.756999969482422,8.595999717712402 C10.937999725341797,10.062000274658203 11.25,11.25 11.805000305175781,12.621000289916992z"></path></g><g opacity="1" transform="matrix(1,0,0,1,0,0)"><path stroke-linecap="butt" stroke-linejoin="miter" fill-opacity="0" stroke-miterlimit="4" stroke="rgb(127,132,141)" stroke-opacity="1" stroke-width="4" d=" M-94.5,-135.5 C-102.75,-132.75 -146.5,-106 -150,-103.5 C-153.5,-101 -196,-19 -197,-16.5 C-198,-14 -204.875,-5.25 -217.875,-3.75 C-219.375,1.625 -219.375,10.625 -218,14.5 C-212.875,15.875 -206.5,13.5 -206.5,13.5 C-206.5,13.5 -214.5,30.5 -215,34.5 C-214.75,53.25 -191,101.25 -176.5,110.75 C-152,125.75 -113,129.25 -75.5,127.25 C-41,117 2.5,85 9.75,74.75 C31.25,53 39,27.5 41,10.5 C49,-26.5 36.5,-69 34.5,-75.5 C29.25,-96.25 8,-117 3,-119.5 C-18.75,-132.25 -91.5,-136.5 -94.5,-135.5z"></path></g></g><g transform="matrix(0.9199999570846558,0,0,0.9199999570846558,374.9998779296875,383.10089111328125)" opacity="1" style="display: block;"><g opacity="1" transform="matrix(1,0,0,1,0,0)"><path fill="rgb(49,43,43)" fill-opacity="1" d=" M-171,10.25 C-179.625,13.25 -187.625,20.875 -191.125,26.5 C-193.0019989013672,29.517000198364258 -194.25,47 -193.25,56 C-192.61700439453125,61.70000076293945 -190,65.25 -184.25,70 C-174.3820037841797,78.1520004272461 -164.04800415039062,85.74800109863281 -153.5,93 C-149.5,95.75 -144.97500610351562,96.14399719238281 -140.25,94.5 C-123,88.5 -98.5,76.5 -89.75,71.75 C-83.98300170898438,68.61900329589844 -82.99700164794922,64.83499908447266 -82.875,61 C-82.625,53.125 -83,47.25 -84,42.25 C-84.48999786376953,39.79899978637695 -84.84600067138672,29.576000213623047 -101.5,20 C-121.5,8.5 -164.18499755859375,7.880000114440918 -171,10.25z"></path></g><g opacity="1" transform="matrix(1,0,0,1,0,0)"><path fill="rgb(80,70,68)" fill-opacity="1" d=" M-171,10.25 C-179.625,13.25 -187.625,20.875 -191.125,26.5 C-193.5399932861328,31.826000213623047 -181.25,44.25 -143.7729949951172,49.69200134277344 C-114.31500244140625,53.970001220703125 -83.5,51.5 -84,42.25 C-84.48999786376953,39.79899978637695 -84.84600067138672,29.576000213623047 -101.5,20 C-121.5,8.5 -164.18499755859375,7.880000114440918 -171,10.25z"></path><path stroke-linecap="butt" stroke-linejoin="miter" fill-opacity="0" stroke-miterlimit="4" stroke="rgb(0,0,0)" stroke-opacity="1" stroke-width="4" d=" M-171,10.25 C-179.625,13.25 -187.625,20.875 -191.125,26.5 C-193.5399932861328,31.826000213623047 -181.25,44.25 -143.7729949951172,49.69200134277344 C-114.31500244140625,53.970001220703125 -83.5,51.5 -84,42.25 C-84.48999786376953,39.79899978637695 -84.84600067138672,29.576000213623047 -101.5,20 C-121.5,8.5 -164.18499755859375,7.880000114440918 -171,10.25z"></path></g><g opacity="1" transform="matrix(1,0,0,1,0,0)"><path stroke-linecap="butt" stroke-linejoin="miter" fill-opacity="0" stroke-miterlimit="4" stroke="rgb(0,0,0)" stroke-opacity="1" stroke-width="4" d=" M-171,10.25 C-179.625,13.25 -187.625,20.875 -191.125,26.5 C-193.0019989013672,29.517000198364258 -194.25,47 -193.25,56 C-192.61700439453125,61.70000076293945 -190,65.25 -184.25,70 C-174.3820037841797,78.1520004272461 -164.04800415039062,85.74800109863281 -153.5,93 C-149.5,95.75 -144.97500610351562,96.14399719238281 -140.25,94.5 C-123,88.5 -98.5,76.5 -89.75,71.75 C-83.98300170898438,68.61900329589844 -82.99700164794922,64.83499908447266 -82.875,61 C-82.625,53.125 -83,47.25 -84,42.25 C-84.48999786376953,39.79899978637695 -84.84600067138672,29.576000213623047 -101.5,20 C-121.5,8.5 -164.18499755859375,7.880000114440918 -171,10.25z"></path></g></g><g transform="matrix(0.9199999570846558,0,0,0.9199999570846558,375.0000305175781,383.1000061035156)" opacity="1" style="display: block;"><g opacity="1" transform="matrix(1,0,0,1,0,0)"><path fill="rgb(146,175,9)" fill-opacity="1" d=" M-54,-224.75 C-54,-224.75 -86,-161.5 -101.25,-126.25 C-105.83999633789062,-115.64099884033203 -92.51399993896484,-98.18199920654297 -62.25,-97 C-30.25,-95.75 -15.5,-112 -18.25,-120.75 C-29.91699981689453,-157.8719940185547 -54,-224.75 -54,-224.75z"></path></g><g opacity="1" transform="matrix(1,0,0,1,0,0)"><path fill="rgb(252,176,3)" fill-opacity="1" d=" M-54,-224.75 C-54,-224.75 -81,-172.875 -96.25,-137.625 C-96.625,-130.68699645996094 -92.43800354003906,-123.06300354003906 -60,-116.875 C-23.5,-118.25 -22.375,-130.625 -22.25,-133.25 C-33.91699981689453,-170.3719940185547 -54,-224.75 -54,-224.75z"></path></g><g opacity="1" transform="matrix(1,0,0,1,0,0)"><path fill="rgb(253,123,21)" fill-opacity="1" d=" M-54,-224.75 C-54,-224.75 -74.5,-185.5 -91,-150 C-93.125,-139.25 -72.10900115966797,-135.01699829101562 -60.75,-132.25 C-38.875,-133.375 -24.437000274658203,-137 -25.625,-144 C-37.5,-181.375 -54,-224.75 -54,-224.75z"></path></g><g opacity="1" transform="matrix(1,0,0,1,0,0)"><path fill="rgb(213,44,23)" fill-opacity="1" d=" M-54,-224.75 C-54,-224.75 -68.625,-197.75 -85.125,-162.25 C-87.25,-151.5 -70.10900115966797,-149.39199829101562 -58.75,-146.625 C-34.5629997253418,-147.68699645996094 -29.187000274658203,-151.25 -30.375,-158.25 C-42.25,-195.625 -54,-224.75 -54,-224.75z"></path></g><g opacity="1" transform="matrix(1,0,0,1,0,0)"><path fill="rgb(33,162,207)" fill-opacity="1" d=" M-54,-224.75 C-54,-224.75 -61.875,-212.18800354003906 -78.375,-176.68800354003906 C-80.125,-170.93800354003906 -69.60900115966797,-167.64199829101562 -58.25,-164.875 C-34.0629997253418,-165.93699645996094 -34.1879997253418,-170.625 -35.6879997253418,-174.5 C-47.5629997253418,-211.875 -54,-224.75 -54,-224.75z"></path></g><g opacity="1" transform="matrix(1,0,0,1,0,0)"><path fill="rgb(91,82,204)" fill-opacity="1" d=" M-54,-224.75 C-54,-224.75 -53.25,-230.18800354003906 -69.75,-194.68800354003906 C-71.5,-188.93800354003906 -68.60900115966797,-188.76699829101562 -57.25,-186 C-44.625,-186.625 -40.6879997253418,-189.625 -42.1879997253418,-193.5 C-54.0629997253418,-230.875 -54,-224.75 -54,-224.75z"></path></g><g opacity="1" transform="matrix(1,0,0,1,0,0)"><path fill="rgb(198,223,76)" fill-opacity="1" d=" M-54.25,-217.5 C-54.25,-217.5 -84.43699645996094,-159.43899536132812 -98.25,-124.5 C-102.5,-113.75 -83.75,-100.5 -61.5,-99.75 C-38.69599914550781,-98.98100280761719 -18.5,-111.25 -21.25,-120 C-32.91699981689453,-157.1219940185547 -54.25,-217.5 -54.25,-217.5z"></path></g><g opacity="1" transform="matrix(1,0,0,1,0,0)"><path fill="rgb(253,216,66)" fill-opacity="1" d=" M-54.25,-217.5 C-54.25,-217.5 -80.04100036621094,-167.8939971923828 -94.85299682617188,-132.79400634765625 C-96.06600189208984,-129.92100524902344 -82.25,-118 -60,-117.25 C-37.19599914550781,-116.48100280761719 -23.076000213623047,-125.9260025024414 -24.131000518798828,-129.03799438476562 C-36.625,-165.875 -54.25,-217.5 -54.25,-217.5z"></path></g><g opacity="1" transform="matrix(1,0,0,1,0,0)"><path fill="rgb(253,166,71)" fill-opacity="1" d=" M-54.25,-217.5 C-54.25,-217.5 -73.625,-178.5 -89.68499755859375,-145.4709930419922 C-91.7300033569336,-141.26600646972656 -73.75,-133.5 -60.5,-133 C-43.744998931884766,-132.3679962158203 -26.259000778198242,-136.7239990234375 -27.61199951171875,-140.46200561523438 C-40.25,-175.375 -54.25,-217.5 -54.25,-217.5z"></path></g><g opacity="1" transform="matrix(1,0,0,1,0,0)"><path fill="rgb(254,82,62)" fill-opacity="1" d=" M-54.1879997253418,-217.93800354003906 C-54.1879997253418,-217.93800354003906 -70.03600311279297,-188.1179962158203 -83.91699981689453,-158.3280029296875 C-85.88899993896484,-154.09500122070312 -71.75,-147.5 -58.5,-147 C-41.744998931884766,-146.3679962158203 -30.520000457763672,-149.42599487304688 -32.04399871826172,-153.96499633789062 C-42.7140007019043,-185.75399780273438 -54.1879997253418,-217.93800354003906 -54.1879997253418,-217.93800354003906z"></path></g><g opacity="1" transform="matrix(1,0,0,1,0,0)"><path fill="rgb(140,217,244)" fill-opacity="1" d=" M-54.1879997253418,-218.43800354003906 C-54.1879997253418,-218.43800354003906 -65.26000213623047,-197.55299377441406 -76.87200164794922,-173.43800354003906 C-79.21299743652344,-168.5760040283203 -63.75,-165.5 -58,-165.25 C-48.97700119018555,-164.85800170898438 -35.6609992980957,-165.00599670410156 -37.441001892089844,-170.22900390625 C-46.21799850463867,-195.98500061035156 -54.1879997253418,-218.43800354003906 -54.1879997253418,-218.43800354003906z"></path></g><g opacity="1" transform="matrix(1,0,0,1,0,0)"><path fill="rgb(169,164,248)" fill-opacity="1" d=" M-54.1879997253418,-218.875 C-54.1879997253418,-218.875 -60.47600173950195,-206.80799865722656 -68.20500183105469,-191.22799682617188 C-70.95700073242188,-185.67999267578125 -42.01300048828125,-183.82699584960938 -44.119998931884766,-189.9219970703125 C-49.77399826049805,-206.2779998779297 -54.1879997253418,-218.875 -54.1879997253418,-218.875z"></path></g><g opacity="1" transform="matrix(1,0,0,1,0,0)"><path fill="rgb(33,162,207)" fill-opacity="1" d=" M-61.875,-185.375 C-63.125,-179.75 -66.75,-175.875 -66.75,-175.875 C-66.75,-175.875 -75.5,-180.625 -75.5,-180.625 C-75.5,-180.625 -76.375,-177.625 -76.375,-177.625 C-76.375,-177.625 -71.125,-173.5 -64.75,-172.375 C-63.5,-174.5 -62.625,-179.625 -61.875,-185.375z"></path></g><g opacity="1" transform="matrix(1,0,0,1,0,0)"><path fill="rgb(33,162,207)" fill-opacity="1" d=" M-53.375,-178.875 C-51.9739990234375,-173.25 -47.9119987487793,-169.375 -47.9119987487793,-169.375 C-47.9119987487793,-169.375 -38.10599899291992,-174.125 -38.10599899291992,-174.125 C-38.10599899291992,-174.125 -37.125,-171.125 -37.125,-171.125 C-37.125,-171.125 -43.00899887084961,-167 -50.15299987792969,-165.875 C-51.55400085449219,-168 -52.534000396728516,-173.125 -53.375,-178.875z"></path></g><g opacity="1" transform="matrix(1,0,0,1,0,0)"><path fill="rgb(169,164,248)" fill-opacity="1" d=" M-51.60200119018555,-188.41099548339844 C-52.75,-194.25 -49.72700119018555,-202.89100646972656 -49.72700119018555,-202.89100646972656 C-49.72700119018555,-202.89100646972656 -38.5620002746582,-193.5 -32.99100112915039,-188.98500061035156 C-34.5620002746582,-183.625 -36.20500183105469,-181.63299560546875 -43.972999572753906,-178.08900451660156 C-46.18000030517578,-179.63800048828125 -48.972999572753906,-183.2010040283203 -51.60200119018555,-188.41099548339844z"></path></g><g opacity="1" transform="matrix(1,0,0,1,0,0)"><path fill="rgb(91,82,204)" fill-opacity="1" d=" M-51.60200119018555,-188.41099548339844 C-48.375,-183.51400756835938 -42.64099884033203,-181.21099853515625 -42.64099884033203,-181.21099853515625 C-42.64099884033203,-181.21099853515625 -36.625,-184.875 -35.74100112915039,-188.14300537109375 C-44.9370002746582,-195.375 -47.790000915527344,-202.14100646972656 -47.790000915527344,-202.14100646972656 C-47.790000915527344,-202.14100646972656 -37.875,-193.5 -32.30400085449219,-188.98500061035156 C-33.875,-183.625 -36.393001556396484,-180.63299560546875 -44.1609992980957,-177.08900451660156 C-46.36800003051758,-178.63800048828125 -48.972999572753906,-183.2010040283203 -51.60200119018555,-188.41099548339844z"></path></g><g opacity="1" transform="matrix(1,0,0,1,0,0)"><path fill="rgb(213,44,23)" fill-opacity="1" d=" M-70.75,-165.625 C-73.25,-162 -74.875,-159.125 -74.875,-159.125 C-74.875,-159.125 -83.625,-163.875 -83.625,-163.875 C-83.625,-163.875 -84.5,-160.875 -84.5,-160.875 C-84.5,-160.875 -80.375,-156.875 -74,-155.75 C-72.75,-157.875 -72.25,-161 -70.75,-165.625z"></path></g><g opacity="1" transform="matrix(1,0,0,1,0,0)"><path fill="rgb(253,123,21)" fill-opacity="1" d=" M-77.375,-146.125 C-79.875,-142.5 -80.125,-141.625 -83.625,-140.5 C-91.375,-143.625 -89,-149.375 -89,-149.375 C-89,-149.375 -90.25,-146.375 -90.25,-146.375 C-90.25,-146.375 -93.25,-139 -82.375,-136.75 C-79.5,-138.75 -78.875,-141.5 -77.375,-146.125z"></path></g><g opacity="1" transform="matrix(1,0,0,1,0,0)"><path fill="rgb(253,123,21)" fill-opacity="1" d=" M-43.3380012512207,-147.0780029296875 C-40.619998931884766,-143.16600036621094 -40.39899826049805,-142.26400756835938 -36.20399856567383,-140.71800231933594 C-26.36199951171875,-142.88299560546875 -28.715999603271484,-148.89500427246094 -28.715999603271484,-148.89500427246094 C-28.715999603271484,-148.89500427246094 -27.474000930786133,-145.7570037841797 -27.474000930786133,-145.7570037841797 C-27.474000930786133,-145.7570037841797 -24.51099967956543,-138.052001953125 -38.111000061035156,-137.13900756835938 C-41.45100021362305,-139.47999572753906 -41.94900131225586,-142.29299926757812 -43.3380012512207,-147.0780029296875z"></path></g><g opacity="1" transform="matrix(1,0,0,1,0,0)"><path fill="rgb(253,123,21)" fill-opacity="1" d=" M-52.08100128173828,-150.9669952392578 C-50.77399826049805,-146.38600158691406 -50.5,-145.25 -49.57500076293945,-142.45399475097656 C-45.5,-143.43699645996094 -42.345001220703125,-145.08200073242188 -42.345001220703125,-145.08200073242188 C-42.345001220703125,-145.08200073242188 -41.310001373291016,-143.08599853515625 -41.310001373291016,-143.08599853515625 C-41.310001373291016,-143.08599853515625 -43.8120002746582,-140.625 -51.4119987487793,-139.6840057373047 C-52.1870002746582,-143.06199645996094 -52.31399917602539,-145.99000549316406 -52.08100128173828,-150.9669952392578z"></path></g><g opacity="1" transform="matrix(1,0,0,1,0,0)"><path fill="rgb(252,176,3)" fill-opacity="1" d=" M-49.20600128173828,-127.21700286865234 C-47.89899826049805,-122.63600158691406 -47.625,-121.5 -46.70000076293945,-118.7040023803711 C-42.625,-119.68699645996094 -39.470001220703125,-121.33200073242188 -39.470001220703125,-121.33200073242188 C-39.470001220703125,-121.33200073242188 -38.435001373291016,-119.33599853515625 -38.435001373291016,-119.33599853515625 C-38.435001373291016,-119.33599853515625 -40.9370002746582,-116.875 -48.5369987487793,-115.93399810791016 C-49.3120002746582,-119.31199645996094 -49.43899917602539,-122.23999786376953 -49.20600128173828,-127.21700286865234z"></path></g><g opacity="1" transform="matrix(1,0,0,1,0,0)"><path fill="rgb(253,216,66)" fill-opacity="1" d=" M-40.893001556396484,-125.71700286865234 C-38.5620002746582,-120.75 -27.812000274658203,-125.68699645996094 -25.531999588012695,-130.7689971923828 C-24,-129.25 -20.309999465942383,-121.08599853515625 -20.309999465942383,-121.08599853515625 C-20.309999465942383,-121.08599853515625 -27.75,-114.5 -35.349998474121094,-113.55899810791016 C-37,-117 -40.3120002746582,-120.75 -40.893001556396484,-125.71700286865234z"></path></g><g opacity="1" transform="matrix(1,0,0,1,0,0)"><path fill="rgb(252,176,3)" fill-opacity="1" d=" M-40.893001556396484,-125.71700286865234 C-38.5620002746582,-120.75 -36.0620002746582,-117.43800354003906 -34.637001037597656,-115.14199829101562 C-31.976999282836914,-115.78399658203125 -24.375,-118.18699645996094 -22.374000549316406,-121.74500274658203 C-23.187999725341797,-122.75 -26,-131.25 -25.781999588012695,-132.5189971923828 C-23.875,-128.31199645996094 -19.309999465942383,-121.21099853515625 -19.309999465942383,-121.21099853515625 C-19.309999465942383,-121.21099853515625 -27.875,-112.625 -35.474998474121094,-111.68399810791016 C-37.125,-115.125 -40.3120002746582,-120.75 -40.893001556396484,-125.71700286865234z"></path></g><g opacity="1" transform="matrix(1,0,0,1,0,0)"><path fill="rgb(146,175,9)" fill-opacity="1" d=" M-65.1500015258789,-112.7699966430664 C-65.16799926757812,-107.28399658203125 -64.07499694824219,-100.90799713134766 -63.76900100708008,-98.2229995727539 C-64.43800354003906,-98.31300354003906 -67.06300354003906,-98.375 -67.62999725341797,-98.45600128173828 C-67.6500015258789,-102.27200317382812 -66.5,-108 -65.1500015258789,-112.7699966430664z"></path></g><g opacity="1" transform="matrix(1,0,0,1,0,0)"><path fill="rgb(146,175,9)" fill-opacity="1" d=" M-77.4000015258789,-121.95800018310547 C-78.25,-116.43800354003906 -79.76200103759766,-104.53299713134766 -79.45600128173828,-101.8479995727539 C-80.125,-101.93800354003906 -84.375,-104.18699645996094 -84.94200134277344,-104.26799774169922 C-83.375,-107.625 -78.75,-117.18800354003906 -77.4000015258789,-121.95800018310547z"></path></g><g opacity="1" transform="matrix(1,0,0,1,0,0)"><path fill="rgb(146,175,9)" fill-opacity="1" d=" M-83.64299774169922,-129.5050048828125 C-85.33499908447266,-124.18199920654297 -90.22899627685547,-110.34100341796875 -90.34100341796875,-107.64099884033203 C-90.98799896240234,-107.83300018310547 -93.52799987792969,-110.33699798583984 -94.07599639892578,-110.50499725341797 C-92.00900268554688,-113.5790023803711 -85.71299743652344,-125 -83.64299774169922,-129.5050048828125z"></path></g><g opacity="1" transform="matrix(1,0,0,1,0,0)"><g opacity="1" transform="matrix(1,0,0,1,0,0)"><path fill="rgb(141,217,243)" fill-opacity="1" d=" M-79.87899780273438,-234.72000122070312 C-76.03600311279297,-223.98599243164062 -88.66699981689453,-199.75599670410156 -80.60299682617188,-205.3260040283203 C-67.51399993896484,-214.36700439453125 -55.19599914550781,-211.3070068359375 -55.19599914550781,-211.3070068359375 C-55.19599914550781,-211.3070068359375 -83.72200012207031,-245.45399475097656 -79.87899780273438,-234.72000122070312z"></path><path stroke-linecap="round" stroke-linejoin="round" fill-opacity="0" stroke="rgb(40,162,205)" stroke-opacity="1" stroke-width="4" d=" M-79.87899780273438,-234.72000122070312 C-76.03600311279297,-223.98599243164062 -88.66699981689453,-199.75599670410156 -80.60299682617188,-205.3260040283203 C-67.51399993896484,-214.36700439453125 -55.19599914550781,-211.3070068359375 -55.19599914550781,-211.3070068359375 C-55.19599914550781,-211.3070068359375 -83.72200012207031,-245.45399475097656 -79.87899780273438,-234.72000122070312z"></path></g><g opacity="1" transform="matrix(1,0,0,1,0,0)"><path fill="rgb(141,217,243)" fill-opacity="1" d=" M-44.821998596191406,-251.8470001220703 C-56.17900085449219,-250.83399963378906 -73.2760009765625,-249.572998046875 -67.40399932861328,-241.7259979248047 C-60.5,-232.5 -55.000999450683594,-211.01499938964844 -55.000999450683594,-211.01499938964844 C-55.000999450683594,-211.01499938964844 -37.5,-252.5 -44.821998596191406,-251.8470001220703z"></path><path stroke-linecap="round" stroke-linejoin="round" fill-opacity="0" stroke="rgb(40,162,205)" stroke-opacity="1" stroke-width="4" d=" M-44.821998596191406,-251.8470001220703 C-56.17900085449219,-250.83399963378906 -73.2760009765625,-249.572998046875 -67.40399932861328,-241.7259979248047 C-60.5,-232.5 -55.000999450683594,-211.01499938964844 -55.000999450683594,-211.01499938964844 C-55.000999450683594,-211.01499938964844 -37.5,-252.5 -44.821998596191406,-251.8470001220703z"></path></g><g opacity="1" transform="matrix(1,0,0,1,0,0)"><path fill="rgb(141,217,243)" fill-opacity="1" d=" M-22.427000045776367,-222.2310028076172 C-23.749000549316406,-233.55599975585938 -28.75,-241.625 -35.112998962402344,-236.15699768066406 C-43.85300064086914,-228.64599609375 -50.125,-219.875 -54.819000244140625,-211.11099243164062 C-42.5,-221.5 -21.875,-217.5 -22.427000045776367,-222.2310028076172z"></path><path stroke-linecap="round" stroke-linejoin="round" fill-opacity="0" stroke="rgb(40,162,205)" stroke-opacity="1" stroke-width="4" d=" M-22.427000045776367,-222.2310028076172 C-23.749000549316406,-233.55599975585938 -28.75,-241.625 -35.112998962402344,-236.15699768066406 C-43.85300064086914,-228.64599609375 -50.125,-219.875 -54.819000244140625,-211.11099243164062 C-42.5,-221.5 -21.875,-217.5 -22.427000045776367,-222.2310028076172z"></path></g><g opacity="1" transform="matrix(1,0,0,1,0,0)"><path fill="rgb(141,217,243)" fill-opacity="1" d=" M-30.493999481201172,-196.13800048828125 C-28.125,-200.25 -24.75,-210.75 -29.19300079345703,-210.78399658203125 C-40.715999603271484,-210.8730010986328 -46.5,-212.625 -54.95399856567383,-210.9320068359375 C-42.875,-204.625 -32.87200164794922,-192.01100158691406 -30.493999481201172,-196.13800048828125z"></path><path stroke-linecap="round" stroke-linejoin="round" fill-opacity="0" stroke="rgb(40,162,205)" stroke-opacity="1" stroke-width="4" d=" M-30.493999481201172,-196.13800048828125 C-28.125,-200.25 -24.75,-210.75 -29.19300079345703,-210.78399658203125 C-40.715999603271484,-210.8730010986328 -46.5,-212.625 -54.95399856567383,-210.9320068359375 C-42.875,-204.625 -32.87200164794922,-192.01100158691406 -30.493999481201172,-196.13800048828125z"></path></g></g></g></g></svg>